<?xml version="1.0" encoding="UTF-8"?>
<!-- Generator: Adobe Illustrator 25.2.1, SVG Export Plug-In . SVG Version: 6.00 Build 0)  -->
<svg version="1.1" id="Capa_1" xmlns="http://www.w3.org/2000/svg" xmlns:xlink="http://www.w3.org/1999/xlink" x="0px" y="0px" viewBox="0 0 600 600" style="enable-background:new 0 0 600 600;" xml:space="preserve"><script xmlns=""/>
<style type="text/css">
	.st0{fill:#FFFFFF;}
	.st1{fill:#F8BB7C;}
	.st2{fill:#1E1E1E;}
	.st3{fill:#BFC1C1;}
	.st4{fill:#DF827D;}
	.st5{fill:#C5416B;}
	.st6{fill:#07918D;}
	.st7{fill:#00AAAA;}
	.st8{fill:#999999;}
</style>
<g>
	<g>
		<path class="st0" d="M576.8,391h-11.6v-32v-8.2H557h-11.6V182.9v-8.2h-8.2h-12.4v-31.6v-8.2h-8.2h-9.4V84.3v-8.2H499h-12.8V64.8    v-8.2H478h-18.9h-8.2v8.2v11.3H439h-8.2v8.2v11.3h-10.9h-8.2v8.2v12.4h-2v-32v-8.2h-8.2h-11.3V45.5v-8.2h-8.2H371V25v-8.2h-8.3    h-21.8h-8.2V25v12.2h-10.4h-8.2v8.2v30.8h-10.9h-8.2v8.2v31.8h-4.8v-12.4v-8.2h-8.2h-10.9V84.3v-8.2h-8.2h-12.2V64.8v-8.2h-8.2    H223h-8.2v8.2v11.3h-10.7h-8.2v8.2V135H184h-8.4v8.2v51.2h-10.9h-8.2v8.2v148.1h-10.1h-8.2v8.2v31h-12.8h-8.2v8.2V450h-11.9H97    v8.2v10.7H85.1h-8.2v8.2v31.1h-3.7v-11.1v-8.2H65H44.8h-8.2v8.2v10.6H24.8h-8.2v8.2V536v8.2h8.2h11.8v4.8H23.2H15v8.2V575v8.2h8.2    h41.7h60.5h97.2h0.9h58.2h137.7h8.2h50.1h63.3h8.2V575v-18.9v-8.2h-8.2h-35.2v-3.7h10.7h8.2V536v-10.7h12.4h8.2v-8.2v-31.6H557    h8.2v-8.2v-11.9h11.6h8.2v-8.2v-57.9v-8.2h-8.2V391z M183.8,544.1h11.3v4.8h-41.5v-3.7H165h8.2V537v-11.9h2.3v10.7v8.2    L183.8,544.1L183.8,544.1z M310.4,547.8v-3.7h81.3v3.7H310.4z"/>
		<g>
			<g>
				<rect x="281.7" y="260.3" class="st1" width="196" height="98.8"/>
				<rect x="281.7" y="241.4" class="st2" width="200.2" height="18.9"/>
				<rect x="379.8" y="202.6" class="st2" width="19.2" height="19.2"/>
				<rect x="281.7" y="163.3" class="st2" width="19.6" height="39.3"/>
				<rect x="438.7" y="163.3" class="st2" width="18.9" height="39.3"/>
				<rect x="281.7" y="124.6" class="st2" width="177.1" height="18.6"/>
				<rect x="419.5" y="103.8" class="st2" width="19.2" height="20.7"/>
				<rect x="438.7" y="84.3" class="st2" width="20.1" height="19.6"/>
				<rect x="458.9" y="64.8" class="st2" width="18.9" height="19.6"/>
				<rect x="477.8" y="84.3" class="st2" width="21" height="58.9"/>
				<rect x="498.8" y="143.1" class="st2" width="17.8" height="59.5"/>
				<rect x="477.8" y="163.3" class="st0" width="21" height="19.2"/>
				<rect x="262.5" y="103.8" class="st2" width="19.2" height="20.7"/>
				<rect x="302.9" y="84.5" class="st2" width="19.2" height="40.1"/>
				<rect x="340.8" y="25" class="st2" width="21.8" height="20.7"/>
				<rect x="381.8" y="84.3" class="st2" width="19.2" height="40.2"/>
				<rect x="362.6" y="45.5" class="st2" width="19.2" height="39"/>
				<rect x="322.2" y="45.5" class="st2" width="19.2" height="39"/>
				<rect x="242" y="84.3" class="st2" width="20.4" height="19.6"/>
				<rect x="222.8" y="64.8" class="st2" width="19.2" height="19.6"/>
				<rect x="204" y="84.3" class="st2" width="18.9" height="78.9"/>
				<rect x="183.8" y="143.1" class="st2" width="20.1" height="59.5"/>
				<rect x="164.7" y="202.6" class="st2" width="19.2" height="156.4"/>
				<rect x="262.5" y="241.4" class="st2" width="19.2" height="117.7"/>
				<rect x="281.7" y="359.1" class="st2" width="196" height="19.9"/>
				<rect x="477.8" y="241.4" class="st2" width="19.9" height="117.7"/>
				<rect x="302.2" y="280.8" class="st2" width="18.9" height="58.7"/>
				<rect x="360.6" y="320.3" class="st2" width="58.9" height="19.2"/>
				<rect x="439.3" y="280.8" class="st2" width="19.6" height="58.7"/>
				<rect x="516.4" y="182.9" class="st2" width="20.7" height="334"/>
				<rect x="537.2" y="359.1" class="st2" width="19.9" height="40.2"/>
				<rect x="557" y="399.3" class="st2" width="19.9" height="57.9"/>
				<rect x="537.2" y="457.2" class="st2" width="19.9" height="20.1"/>
				<rect x="537.2" y="399.3" class="st3" width="19.9" height="57.9"/>
				<rect x="497.5" y="516.9" class="st2" width="18.9" height="18.9"/>
				<rect x="477.8" y="535.9" class="st2" width="19.9" height="20.1"/>
				<rect x="419.5" y="555.9" class="st2" width="58.2" height="18.9"/>
				<rect x="400" y="535.9" class="st2" width="19.6" height="20.1"/>
				<rect x="302.2" y="516.9" class="st2" width="137.2" height="18.9"/>
				<rect x="281.7" y="535.9" class="st2" width="20.4" height="20.1"/>
				<rect x="222.6" y="555.9" class="st2" width="59.1" height="18.9"/>
				<rect x="203.3" y="535.9" class="st2" width="20.1" height="20.1"/>
				<rect x="183.8" y="516.9" class="st2" width="19.6" height="18.9"/>
				<rect x="164.7" y="464.1" class="st2" width="19.2" height="52.8"/>
				<rect x="144.6" y="458.1" class="st2" width="58.9" height="18.9"/>
				<rect x="203.3" y="417.5" class="st2" width="20.1" height="40.6"/>
				<rect x="223.5" y="378.8" class="st2" width="19.6" height="38.8"/>
				<rect x="125.2" y="398.2" class="st2" width="19.2" height="59.9"/>
				<rect x="146.4" y="359.1" class="st2" width="18.3" height="39.2"/>
				<rect x="281.7" y="378.8" class="st0" width="196" height="98.5"/>
				<rect x="302.2" y="477.3" class="st0" width="156.7" height="19.6"/>
				<rect x="281.7" y="378.6" class="st0" width="59.2" height="19.6"/>
				<rect x="281.7" y="398.2" class="st0" width="39.3" height="79.1"/>
				<rect x="302.2" y="477.3" class="st3" width="38.8" height="19.6"/>
				<rect x="281.7" y="260.3" class="st4" width="79.3" height="20.6"/>
				<rect x="281.7" y="339.5" class="st5" width="39.3" height="19.6"/>
				<rect x="281.7" y="280.8" class="st4" width="20.4" height="58.7"/>
				<rect x="439.3" y="339.5" class="st5" width="38.5" height="19.6"/>
				<rect x="419.3" y="260.3" class="st4" width="58.3" height="20.6"/>
				<rect x="497.5" y="477.3" class="st3" width="18.9" height="39.6"/>
				<rect x="183.8" y="497.1" class="st3" width="332.6" height="19.9"/>
				<rect x="203.3" y="516.9" class="st3" width="59.1" height="18.9"/>
				<rect x="223.5" y="536.4" class="st3" width="19.6" height="19.6"/>
				<rect x="183.8" y="477.3" class="st3" width="118.4" height="19.9"/>
				<rect x="203.3" y="458.1" class="st3" width="78.3" height="19.2"/>
				<rect x="223.5" y="417.5" class="st3" width="58.2" height="40.6"/>
				<rect x="243" y="359.1" class="st3" width="38.8" height="58.6"/>
				<rect x="223.5" y="359.1" class="st3" width="19.6" height="19.9"/>
				<rect x="164.7" y="359.1" class="st3" width="19.2" height="39.2"/>
				<rect x="183.8" y="202.6" class="st3" width="78.6" height="156.4"/>
				<rect x="281.7" y="202.6" class="st0" width="196" height="38.8"/>
				<rect x="301.2" y="182.6" class="st0" width="80.7" height="20.1"/>
				<rect x="418" y="182.6" class="st3" width="20.1" height="20.1"/>
				<rect x="301.2" y="182.6" class="st3" width="19.9" height="20.1"/>
				<rect x="281.7" y="221.9" class="st3" width="59.2" height="19.3"/>
				<rect x="281.7" y="202.6" class="st3" width="39.3" height="19.2"/>
				<rect x="399.1" y="202.6" class="st3" width="18.9" height="38.8"/>
				<rect x="418" y="221.8" class="st3" width="21.3" height="19.6"/>
				<rect x="223.2" y="143.1" class="st3" width="98.1" height="20.1"/>
				<rect x="222.8" y="84.3" class="st3" width="19.2" height="58.9"/>
				<rect x="242" y="103.8" class="st3" width="20.4" height="39.3"/>
				<rect x="262.5" y="124.6" class="st3" width="19.2" height="18.6"/>
				<rect x="204" y="163.3" class="st3" width="77.8" height="39.3"/>
				<rect x="262.5" y="202.6" class="st3" width="19.2" height="38.8"/>
				<polygon class="st0" points="144.6,458.1 144.6,398.2 183.8,398.2 183.8,359.1 223.5,359.1 223.5,417.5 203.3,417.5       203.3,458.1     "/>
				<polygon class="st0" points="458.9,496.9 497.5,497.1 497.5,477.3 516.4,477.3 516.4,202.6 498.8,202.6 498.8,182.6       477.8,182.6 477.8,163.3 498.8,163.3 498.8,143.1 477.8,143.1 477.8,84.3 458.9,84.3 458.9,103.8 438.7,103.8 438.7,124.6       458.9,124.6 458.9,143.1 321.4,143.1 321.4,163.3 301.2,163.3 301.2,182.6 438.1,182.6 438.7,163.3 457.6,163.3 457.6,202.6       477.8,202.6 477.8,241.4 497.5,241.4 497.5,359.1 477.8,359.1 477.8,477.3 458.9,477.3     "/>
				<polygon class="st0" points="243,555.9 243,536.4 262.5,535.9 262.5,516.9 302.2,516.9 302.2,535.9 281.7,535.9 281.7,555.9           "/>
				<polygon class="st0" points="419.5,555.9 419.5,535.9 439.3,535.9 439.3,516.9 497.5,516.9 497.5,535.9 477.8,535.9       477.8,555.9     "/>
				<polygon class="st6" points="322.2,124.6 381.8,124.6 381.8,84.5 362.6,84.5 362.6,104.5 322.2,104.5     "/>
				<polygon class="st7" points="341.4,84.5 341.4,45.5 362.6,45.5 362.6,104.5 322.2,104.5 322.2,84.5     "/>
				<rect x="203.7" y="320.7" class="st0" width="19.6" height="19.2"/>
				<rect x="342" y="200.9" class="st2" width="20.1" height="20.1"/>
				<rect x="381.4" y="182.6" class="st0" width="36.7" height="20.1"/>
				<rect x="401.5" y="200.9" class="st2" width="20.1" height="20.1"/>
				<rect x="378.8" y="221.2" class="st3" width="20.2" height="20.2"/>
				<rect x="85.1" y="477" class="st2" width="20.1" height="39.3"/>
				<rect x="65" y="516.3" class="st2" width="20.1" height="20.1"/>
				<rect x="44.8" y="497" class="st2" width="20.1" height="20.1"/>
				<rect x="44.8" y="516.3" class="st7" width="20.1" height="20.1"/>
				<rect x="65" y="536.8" class="st7" width="20.1" height="20.1"/>
				<rect x="85.1" y="515.8" class="st7" width="20.1" height="21.3"/>
				<rect x="105.2" y="477.2" class="st7" width="20.1" height="38.6"/>
				<rect x="85.1" y="536.8" class="st7" width="20.1" height="20.1"/>
				<rect x="105.2" y="515.8" class="st7" width="20.1" height="21.3"/>
				<rect x="125.4" y="477.2" class="st7" width="20.1" height="38.6"/>
				<rect x="104.8" y="536.8" class="st7" width="20.1" height="20.1"/>
				<rect x="124.9" y="515.8" class="st7" width="20.1" height="21.3"/>
				<rect x="145" y="477.2" class="st7" width="20.1" height="38.6"/>
				<rect x="24.8" y="515.8" class="st2" width="20.1" height="20.1"/>
				<rect x="44.8" y="536.4" class="st2" width="20.1" height="20.1"/>
				<rect x="144.9" y="516.9" class="st2" width="20.1" height="20.1"/>
				<rect x="125.2" y="537" class="st2" width="20.1" height="20.1"/>
				<rect x="65" y="557.2" class="st2" width="60.5" height="17.8"/>
				<rect x="105.2" y="458.1" class="st2" width="39.3" height="18.9"/>
				<rect x="125.4" y="557.2" class="st8" width="98.1" height="17.8"/>
				<rect x="281.6" y="556" class="st8" width="137.7" height="18.9"/>
				<rect x="477.8" y="556" class="st8" width="63.3" height="18.9"/>
				<rect x="23.2" y="557.2" class="st8" width="41.7" height="17.8"/>
			</g>
			<g>
				<rect x="380.6" y="391.1" class="st7" width="19.9" height="19.9"/>
				<rect x="380.6" y="409.6" class="st7" width="19.9" height="19.9"/>
				<rect x="360.8" y="429.4" class="st7" width="19.9" height="19.9"/>
				<rect x="400.4" y="429.4" class="st7" width="19.9" height="19.9"/>
				<rect x="420.3" y="449.2" class="st7" width="19.9" height="19.9"/>
				<rect x="380.6" y="449.2" class="st7" width="19.9" height="19.9"/>
				<rect x="341" y="449.2" class="st7" width="19.9" height="19.9"/>
				<rect x="351.4" y="406.3" class="st7" width="19.9" height="19.9"/>
				<rect x="409.1" y="404.6" class="st7" width="19.9" height="19.9"/>
			</g>
		</g>
	</g>
</g>
</svg>